<mxfile host="app.diagrams.net" modified="2022-07-01T09:23:28.694Z" agent="5.0 (Windows NT 10.0; Win64; x64) AppleWebKit/537.36 (KHTML, like Gecko) Chrome/103.0.5060.53 Safari/537.36 Edg/103.0.1264.37" etag="-MW1M0yxEdr3KXVkjjmM" version="20.0.1" type="github">
  <diagram id="6dTLojbdlkIHz3WYkGao" name="Page-1">
    <mxGraphModel dx="1169" dy="541" grid="1" gridSize="10" guides="1" tooltips="1" connect="1" arrows="1" fold="1" page="1" pageScale="1" pageWidth="850" pageHeight="1100" math="0" shadow="0">
      <root>
        <mxCell id="0" />
        <mxCell id="1" parent="0" />
        <mxCell id="8iUZsvhAW66jJa_06seg-52" value="Public subnet 1a" style="points=[[0,0],[0.25,0],[0.5,0],[0.75,0],[1,0],[1,0.25],[1,0.5],[1,0.75],[1,1],[0.75,1],[0.5,1],[0.25,1],[0,1],[0,0.75],[0,0.5],[0,0.25]];outlineConnect=0;gradientColor=none;html=1;whiteSpace=wrap;fontSize=12;fontStyle=0;container=1;pointerEvents=0;collapsible=0;recursiveResize=0;shape=mxgraph.aws4.group;grIcon=mxgraph.aws4.group_security_group;grStroke=0;strokeColor=#147EBA;fillColor=#E6F2F8;verticalAlign=top;align=left;spacingLeft=30;fontColor=#147EBA;dashed=0;" vertex="1" parent="1">
          <mxGeometry x="364" y="245" width="127" height="119" as="geometry" />
        </mxCell>
        <mxCell id="8iUZsvhAW66jJa_06seg-53" value="Security Group" style="rounded=1;arcSize=10;dashed=1;strokeColor=#ff0000;fillColor=none;gradientColor=none;dashPattern=8 4;strokeWidth=2;labelPosition=center;verticalLabelPosition=top;align=center;verticalAlign=bottom;fontColor=#FF3333;" vertex="1" parent="8iUZsvhAW66jJa_06seg-52">
          <mxGeometry x="25" y="40" width="80" height="70" as="geometry" />
        </mxCell>
        <mxCell id="8iUZsvhAW66jJa_06seg-49" value="Public subnet 1a" style="points=[[0,0],[0.25,0],[0.5,0],[0.75,0],[1,0],[1,0.25],[1,0.5],[1,0.75],[1,1],[0.75,1],[0.5,1],[0.25,1],[0,1],[0,0.75],[0,0.5],[0,0.25]];outlineConnect=0;gradientColor=none;html=1;whiteSpace=wrap;fontSize=12;fontStyle=0;container=1;pointerEvents=0;collapsible=0;recursiveResize=0;shape=mxgraph.aws4.group;grIcon=mxgraph.aws4.group_security_group;grStroke=0;strokeColor=#147EBA;fillColor=#E6F2F8;verticalAlign=top;align=left;spacingLeft=30;fontColor=#147EBA;dashed=0;" vertex="1" parent="1">
          <mxGeometry x="112" y="247" width="127" height="119" as="geometry" />
        </mxCell>
        <mxCell id="8iUZsvhAW66jJa_06seg-50" value="Security Group" style="rounded=1;arcSize=10;dashed=1;strokeColor=#ff0000;fillColor=none;gradientColor=none;dashPattern=8 4;strokeWidth=2;labelPosition=center;verticalLabelPosition=top;align=center;verticalAlign=bottom;fontColor=#FF3333;" vertex="1" parent="8iUZsvhAW66jJa_06seg-49">
          <mxGeometry x="25" y="40" width="80" height="70" as="geometry" />
        </mxCell>
        <mxCell id="8iUZsvhAW66jJa_06seg-21" value="Availability Zone2" style="fillColor=none;strokeColor=#147EBA;dashed=1;verticalAlign=top;fontStyle=0;fontColor=#147EBA;" vertex="1" parent="1">
          <mxGeometry x="353" y="220" width="150" height="281" as="geometry" />
        </mxCell>
        <mxCell id="8iUZsvhAW66jJa_06seg-22" value="Private subnet 2a" style="points=[[0,0],[0.25,0],[0.5,0],[0.75,0],[1,0],[1,0.25],[1,0.5],[1,0.75],[1,1],[0.75,1],[0.5,1],[0.25,1],[0,1],[0,0.75],[0,0.5],[0,0.25]];outlineConnect=0;gradientColor=none;html=1;whiteSpace=wrap;fontSize=12;fontStyle=0;container=1;pointerEvents=0;collapsible=0;recursiveResize=0;shape=mxgraph.aws4.group;grIcon=mxgraph.aws4.group_security_group;grStroke=0;strokeColor=#147EBA;fillColor=#E6F2F8;verticalAlign=top;align=left;spacingLeft=30;fontColor=#147EBA;dashed=0;" vertex="1" parent="1">
          <mxGeometry x="363" y="372" width="127" height="119" as="geometry" />
        </mxCell>
        <mxCell id="8iUZsvhAW66jJa_06seg-23" value="Security Group" style="rounded=1;arcSize=10;dashed=1;strokeColor=#ff0000;fillColor=none;gradientColor=none;dashPattern=8 4;strokeWidth=2;labelPosition=center;verticalLabelPosition=top;align=center;verticalAlign=bottom;fontColor=#FF3333;" vertex="1" parent="8iUZsvhAW66jJa_06seg-22">
          <mxGeometry x="35.25" y="44.75" width="59.75" height="65.25" as="geometry" />
        </mxCell>
        <mxCell id="8iUZsvhAW66jJa_06seg-24" value="EC2" style="sketch=0;points=[[0,0,0],[0.25,0,0],[0.5,0,0],[0.75,0,0],[1,0,0],[0,1,0],[0.25,1,0],[0.5,1,0],[0.75,1,0],[1,1,0],[0,0.25,0],[0,0.5,0],[0,0.75,0],[1,0.25,0],[1,0.5,0],[1,0.75,0]];outlineConnect=0;fontColor=#232F3E;gradientColor=#F78E04;gradientDirection=north;fillColor=#D05C17;strokeColor=#ffffff;dashed=0;verticalLabelPosition=bottom;verticalAlign=top;align=center;html=1;fontSize=12;fontStyle=0;aspect=fixed;shape=mxgraph.aws4.resourceIcon;resIcon=mxgraph.aws4.ec2;" vertex="1" parent="8iUZsvhAW66jJa_06seg-22">
          <mxGeometry x="54" y="60" width="19.5" height="19.5" as="geometry" />
        </mxCell>
        <mxCell id="8iUZsvhAW66jJa_06seg-2" value="AWS&amp;nbsp;" style="points=[[0,0],[0.25,0],[0.5,0],[0.75,0],[1,0],[1,0.25],[1,0.5],[1,0.75],[1,1],[0.75,1],[0.5,1],[0.25,1],[0,1],[0,0.75],[0,0.5],[0,0.25]];outlineConnect=0;gradientColor=none;html=1;whiteSpace=wrap;fontSize=12;fontStyle=0;shape=mxgraph.aws4.group;grIcon=mxgraph.aws4.group_aws_cloud_alt;strokeColor=#232F3E;fillColor=none;verticalAlign=top;align=left;spacingLeft=30;fontColor=#232F3E;dashed=0;labelBackgroundColor=#ffffff;container=1;pointerEvents=0;collapsible=0;recursiveResize=0;" vertex="1" parent="1">
          <mxGeometry x="40" y="80" width="560" height="550" as="geometry" />
        </mxCell>
        <mxCell id="8iUZsvhAW66jJa_06seg-1" value="VPC" style="points=[[0,0],[0.25,0],[0.5,0],[0.75,0],[1,0],[1,0.25],[1,0.5],[1,0.75],[1,1],[0.75,1],[0.5,1],[0.25,1],[0,1],[0,0.75],[0,0.5],[0,0.25]];outlineConnect=0;gradientColor=none;html=1;whiteSpace=wrap;fontSize=12;fontStyle=0;container=1;pointerEvents=0;collapsible=0;recursiveResize=0;shape=mxgraph.aws4.group;grIcon=mxgraph.aws4.group_vpc;strokeColor=#248814;fillColor=none;verticalAlign=top;align=left;spacingLeft=30;fontColor=#AAB7B8;dashed=0;" vertex="1" parent="8iUZsvhAW66jJa_06seg-2">
          <mxGeometry x="40" y="79" width="470" height="441" as="geometry" />
        </mxCell>
        <mxCell id="8iUZsvhAW66jJa_06seg-55" value="" style="rounded=1;arcSize=10;dashed=1;strokeColor=#7EA6E0;fillColor=none;gradientColor=none;dashPattern=8 4;strokeWidth=2;" vertex="1" parent="8iUZsvhAW66jJa_06seg-1">
          <mxGeometry x="60" y="140" width="320" height="40" as="geometry" />
        </mxCell>
        <mxCell id="8iUZsvhAW66jJa_06seg-12" value="Availability Zone1" style="fillColor=none;strokeColor=#147EBA;dashed=1;verticalAlign=top;fontStyle=0;fontColor=#147EBA;" vertex="1" parent="8iUZsvhAW66jJa_06seg-1">
          <mxGeometry x="20" y="60" width="150" height="281" as="geometry" />
        </mxCell>
        <mxCell id="8iUZsvhAW66jJa_06seg-14" value="Private subnet 1a" style="points=[[0,0],[0.25,0],[0.5,0],[0.75,0],[1,0],[1,0.25],[1,0.5],[1,0.75],[1,1],[0.75,1],[0.5,1],[0.25,1],[0,1],[0,0.75],[0,0.5],[0,0.25]];outlineConnect=0;gradientColor=none;html=1;whiteSpace=wrap;fontSize=12;fontStyle=0;container=1;pointerEvents=0;collapsible=0;recursiveResize=0;shape=mxgraph.aws4.group;grIcon=mxgraph.aws4.group_security_group;grStroke=0;strokeColor=#147EBA;fillColor=#E6F2F8;verticalAlign=top;align=left;spacingLeft=30;fontColor=#147EBA;dashed=0;" vertex="1" parent="8iUZsvhAW66jJa_06seg-1">
          <mxGeometry x="33" y="213" width="127" height="119" as="geometry" />
        </mxCell>
        <mxCell id="8iUZsvhAW66jJa_06seg-15" value="Security Group" style="rounded=1;arcSize=10;dashed=1;strokeColor=#ff0000;fillColor=none;gradientColor=none;dashPattern=8 4;strokeWidth=2;labelPosition=center;verticalLabelPosition=top;align=center;verticalAlign=bottom;fontColor=#FF3333;" vertex="1" parent="8iUZsvhAW66jJa_06seg-14">
          <mxGeometry x="35.25" y="44.75" width="59.75" height="65.25" as="geometry" />
        </mxCell>
        <mxCell id="8iUZsvhAW66jJa_06seg-16" value="EC2" style="sketch=0;points=[[0,0,0],[0.25,0,0],[0.5,0,0],[0.75,0,0],[1,0,0],[0,1,0],[0.25,1,0],[0.5,1,0],[0.75,1,0],[1,1,0],[0,0.25,0],[0,0.5,0],[0,0.75,0],[1,0.25,0],[1,0.5,0],[1,0.75,0]];outlineConnect=0;fontColor=#232F3E;gradientColor=#F78E04;gradientDirection=north;fillColor=#D05C17;strokeColor=#ffffff;dashed=0;verticalLabelPosition=bottom;verticalAlign=top;align=center;html=1;fontSize=12;fontStyle=0;aspect=fixed;shape=mxgraph.aws4.resourceIcon;resIcon=mxgraph.aws4.ec2;" vertex="1" parent="8iUZsvhAW66jJa_06seg-14">
          <mxGeometry x="54" y="60" width="19.5" height="19.5" as="geometry" />
        </mxCell>
        <mxCell id="8iUZsvhAW66jJa_06seg-40" style="edgeStyle=orthogonalEdgeStyle;orthogonalLoop=1;jettySize=auto;html=1;entryX=1;entryY=0.5;entryDx=0;entryDy=0;entryPerimeter=0;rounded=0;" edge="1" parent="8iUZsvhAW66jJa_06seg-1" source="8iUZsvhAW66jJa_06seg-34" target="8iUZsvhAW66jJa_06seg-39">
          <mxGeometry relative="1" as="geometry">
            <Array as="points">
              <mxPoint x="180" y="389" />
              <mxPoint x="180" y="389" />
            </Array>
          </mxGeometry>
        </mxCell>
        <mxCell id="8iUZsvhAW66jJa_06seg-29" value="Auto Scaling Group" style="sketch=0;points=[[0,0,0],[0.25,0,0],[0.5,0,0],[0.75,0,0],[1,0,0],[0,1,0],[0.25,1,0],[0.5,1,0],[0.75,1,0],[1,1,0],[0,0.25,0],[0,0.5,0],[0,0.75,0],[1,0.25,0],[1,0.5,0],[1,0.75,0]];outlineConnect=0;fontColor=#232F3E;gradientColor=#F78E04;gradientDirection=north;fillColor=#D05C17;strokeColor=#ffffff;dashed=0;verticalLabelPosition=bottom;verticalAlign=top;align=center;html=1;fontSize=12;fontStyle=0;aspect=fixed;shape=mxgraph.aws4.resourceIcon;resIcon=mxgraph.aws4.auto_scaling2;" vertex="1" parent="8iUZsvhAW66jJa_06seg-1">
          <mxGeometry x="201" y="254.5" width="40" height="40" as="geometry" />
        </mxCell>
        <mxCell id="8iUZsvhAW66jJa_06seg-34" value="Endpoint" style="sketch=0;outlineConnect=0;fontColor=#232F3E;gradientColor=none;fillColor=#4D27AA;strokeColor=none;dashed=0;verticalLabelPosition=bottom;verticalAlign=top;align=center;html=1;fontSize=12;fontStyle=0;aspect=fixed;pointerEvents=1;shape=mxgraph.aws4.endpoint;" vertex="1" parent="8iUZsvhAW66jJa_06seg-1">
          <mxGeometry x="170" y="374" width="39" height="39" as="geometry" />
        </mxCell>
        <mxCell id="8iUZsvhAW66jJa_06seg-39" value="RDS(Mysql)" style="sketch=0;points=[[0,0,0],[0.25,0,0],[0.5,0,0],[0.75,0,0],[1,0,0],[0,1,0],[0.25,1,0],[0.5,1,0],[0.75,1,0],[1,1,0],[0,0.25,0],[0,0.5,0],[0,0.75,0],[1,0.25,0],[1,0.5,0],[1,0.75,0]];outlineConnect=0;fontColor=#232F3E;gradientColor=#4D72F3;gradientDirection=north;fillColor=#3334B9;strokeColor=#ffffff;dashed=0;verticalLabelPosition=bottom;verticalAlign=top;align=center;html=1;fontSize=12;fontStyle=0;aspect=fixed;shape=mxgraph.aws4.resourceIcon;resIcon=mxgraph.aws4.rds;" vertex="1" parent="8iUZsvhAW66jJa_06seg-1">
          <mxGeometry x="46" y="364" width="49" height="49" as="geometry" />
        </mxCell>
        <mxCell id="8iUZsvhAW66jJa_06seg-28" value="" style="rounded=1;arcSize=10;dashed=1;strokeColor=#F59D56;fillColor=none;gradientColor=none;dashPattern=8 4;strokeWidth=2;" vertex="1" parent="8iUZsvhAW66jJa_06seg-1">
          <mxGeometry x="47" y="255" width="354" height="80" as="geometry" />
        </mxCell>
        <mxCell id="8iUZsvhAW66jJa_06seg-64" style="edgeStyle=orthogonalEdgeStyle;rounded=0;orthogonalLoop=1;jettySize=auto;html=1;entryX=0.488;entryY=-0.09;entryDx=0;entryDy=0;entryPerimeter=0;" edge="1" parent="8iUZsvhAW66jJa_06seg-1" target="8iUZsvhAW66jJa_06seg-28">
          <mxGeometry relative="1" as="geometry">
            <mxPoint x="220" y="201" as="sourcePoint" />
          </mxGeometry>
        </mxCell>
        <mxCell id="8iUZsvhAW66jJa_06seg-43" value="ALB" style="sketch=0;outlineConnect=0;fontColor=#232F3E;gradientColor=none;fillColor=#4D27AA;strokeColor=none;dashed=0;verticalLabelPosition=bottom;verticalAlign=top;align=center;html=1;fontSize=12;fontStyle=0;aspect=fixed;pointerEvents=1;shape=mxgraph.aws4.application_load_balancer;" vertex="1" parent="8iUZsvhAW66jJa_06seg-1">
          <mxGeometry x="201" y="140" width="37.25" height="37.25" as="geometry" />
        </mxCell>
        <mxCell id="8iUZsvhAW66jJa_06seg-65" style="edgeStyle=orthogonalEdgeStyle;rounded=0;orthogonalLoop=1;jettySize=auto;html=1;" edge="1" parent="8iUZsvhAW66jJa_06seg-1" source="8iUZsvhAW66jJa_06seg-16" target="8iUZsvhAW66jJa_06seg-34">
          <mxGeometry relative="1" as="geometry">
            <Array as="points">
              <mxPoint x="97" y="351" />
              <mxPoint x="190" y="351" />
            </Array>
          </mxGeometry>
        </mxCell>
        <mxCell id="8iUZsvhAW66jJa_06seg-58" value="Internet Gateway" style="sketch=0;outlineConnect=0;fontColor=#232F3E;gradientColor=none;fillColor=#4D27AA;strokeColor=none;dashed=0;verticalLabelPosition=bottom;verticalAlign=top;align=center;html=1;fontSize=12;fontStyle=0;aspect=fixed;pointerEvents=1;shape=mxgraph.aws4.internet_gateway;" vertex="1" parent="8iUZsvhAW66jJa_06seg-2">
          <mxGeometry x="237" y="53" width="47" height="47" as="geometry" />
        </mxCell>
        <mxCell id="8iUZsvhAW66jJa_06seg-59" style="edgeStyle=orthogonalEdgeStyle;rounded=0;orthogonalLoop=1;jettySize=auto;html=1;" edge="1" parent="8iUZsvhAW66jJa_06seg-2" source="8iUZsvhAW66jJa_06seg-58" target="8iUZsvhAW66jJa_06seg-55">
          <mxGeometry relative="1" as="geometry">
            <Array as="points">
              <mxPoint x="260" y="130" />
              <mxPoint x="260" y="130" />
            </Array>
          </mxGeometry>
        </mxCell>
        <mxCell id="8iUZsvhAW66jJa_06seg-61" style="edgeStyle=orthogonalEdgeStyle;rounded=0;orthogonalLoop=1;jettySize=auto;html=1;" edge="1" parent="1" source="8iUZsvhAW66jJa_06seg-35" target="8iUZsvhAW66jJa_06seg-58">
          <mxGeometry relative="1" as="geometry">
            <Array as="points">
              <mxPoint x="301" y="110" />
            </Array>
          </mxGeometry>
        </mxCell>
        <mxCell id="8iUZsvhAW66jJa_06seg-68" value="Http/Https" style="edgeLabel;html=1;align=center;verticalAlign=middle;resizable=0;points=[];" vertex="1" connectable="0" parent="8iUZsvhAW66jJa_06seg-61">
          <mxGeometry x="-0.7068" y="1" relative="1" as="geometry">
            <mxPoint x="30" as="offset" />
          </mxGeometry>
        </mxCell>
        <mxCell id="8iUZsvhAW66jJa_06seg-35" value="User" style="points=[[0.13,0.02,0],[0.5,0,0],[0.87,0.02,0],[0.885,0.4,0],[0.985,0.985,0],[0.5,1,0],[0.015,0.985,0],[0.115,0.4,0]];verticalLabelPosition=bottom;sketch=0;html=1;verticalAlign=top;aspect=fixed;align=center;pointerEvents=1;shape=mxgraph.cisco19.laptop;fillColor=#005073;strokeColor=none;" vertex="1" parent="1">
          <mxGeometry x="690" y="90" width="50" height="35" as="geometry" />
        </mxCell>
        <mxCell id="8iUZsvhAW66jJa_06seg-67" style="edgeStyle=orthogonalEdgeStyle;rounded=0;orthogonalLoop=1;jettySize=auto;html=1;" edge="1" parent="1" source="8iUZsvhAW66jJa_06seg-24" target="8iUZsvhAW66jJa_06seg-34">
          <mxGeometry relative="1" as="geometry">
            <Array as="points">
              <mxPoint x="427" y="550" />
            </Array>
          </mxGeometry>
        </mxCell>
      </root>
    </mxGraphModel>
  </diagram>
</mxfile>
